<?xml version="1.0" encoding="UTF-8" standalone="no"?>
<!-- Created with Inkscape (http://www.inkscape.org/) -->

<svg
   xmlns:dc="http://purl.org/dc/elements/1.1/"
   xmlns:cc="http://creativecommons.org/ns#"
   xmlns:rdf="http://www.w3.org/1999/02/22-rdf-syntax-ns#"
   xmlns:svg="http://www.w3.org/2000/svg"
   xmlns="http://www.w3.org/2000/svg"
   xmlns:sodipodi="http://sodipodi.sourceforge.net/DTD/sodipodi-0.dtd"
   xmlns:inkscape="http://www.inkscape.org/namespaces/inkscape"
   width="138.66942mm"
   height="122.26535mm"
   viewBox="0 0 138.66942 122.26535"
   version="1.1"
   id="svg8"
   inkscape:version="0.92.3 (2405546, 2018-03-11)"
   sodipodi:docname="logo.svg"
   inkscape:export-filename="/home/ncarrara/work/alfred/alfred-lendingpage/public/assets/img/logo/logo3.png"
   inkscape:export-xdpi="96"
   inkscape:export-ydpi="96">
  <defs
     id="defs2" />
  <sodipodi:namedview
     id="base"
     pagecolor="#ffffff"
     bordercolor="#666666"
     borderopacity="1.0"
     inkscape:pageopacity="0.0"
     inkscape:pageshadow="2"
     inkscape:zoom="0.98994949"
     inkscape:cx="131.36501"
     inkscape:cy="193.8358"
     inkscape:document-units="mm"
     inkscape:current-layer="layer1"
     showgrid="false"
     inkscape:window-width="1920"
     inkscape:window-height="1020"
     inkscape:window-x="1440"
     inkscape:window-y="0"
     inkscape:window-maximized="1" />
  <metadata
     id="metadata5">
    <rdf:RDF>
      <cc:Work
         rdf:about="">
        <dc:format>image/svg+xml</dc:format>
        <dc:type
           rdf:resource="http://purl.org/dc/dcmitype/StillImage" />
        <dc:title></dc:title>
      </cc:Work>
    </rdf:RDF>
  </metadata>
  <g
     inkscape:label="Layer 1"
     inkscape:groupmode="layer"
     id="layer1"
     transform="translate(-31.183035,-85.466633)">
    <path
       style="fill:#ff8080;stroke:none;stroke-width:0.26458332px;stroke-linecap:butt;stroke-linejoin:miter;stroke-opacity:1"
       d="m 31.183035,191.92262 c 11.599416,-1.38582 23.861058,-10.36642 23.585547,-23.01682 0.720334,-13.94999 -4.224392,-28.30783 1.002548,-41.8767 3.559684,-13.23171 11.102572,-25.88696 23.207949,-32.901187 9.326248,-6.477916 20.825987,-9.502512 32.121771,-8.459318 11.67663,-0.423277 23.42582,2.256638 33.49345,8.264905 9.37895,4.799218 18.83471,10.34012 25.25816,18.91705 -7.53816,4.65878 -15.04992,9.4516 -23.20017,12.98991 -7.24386,-4.72187 -13.80811,-11.18426 -22.63321,-12.76827 -16.4609,-5.62042 -37.328867,-0.0808 -46.052114,15.71203 -8.37699,13.95226 -8.839012,30.65388 -9.955589,46.41218 -1.818392,10.91525 -12.84657,18.22376 -23.539584,17.81161 -4.453064,0.24923 -8.924316,-0.20268 -13.288758,-1.08539 z"
       id="path99"
       inkscape:connector-curvature="0" />
    <path
       style="fill:#ff8080;stroke:none;stroke-width:0.26458332px;stroke-linecap:butt;stroke-linejoin:miter;stroke-opacity:1"
       d="m 71.628232,187.95403 c 5.298386,-3.73172 14.039088,-10.22677 13.397397,-16.32237 -0.993594,-11.04037 -3.344078,-20.09371 -1.229732,-30.9893 4.239267,-13.19823 19.281853,-20.85213 32.605783,-18.48195 13.22079,1.58254 26.4119,10.42211 29.89977,23.76299 2.35559,9.74029 -0.20731,19.74452 0.5747,29.60378 0.10715,4.41022 0.3014,8.81793 0.38931,13.22866 -3.40383,-2.67959 -9.16674,-3.85969 -9.65738,-8.95157 0.009,-5.48565 -0.55242,-10.9582 -0.76613,-16.43903 -6.68174,-4.18722 -13.36347,-8.37445 -20.04521,-12.56167 0.71272,5.2563 1.42543,10.5126 2.13815,15.7689 3.70797,2.98409 10.95903,2.97111 11.60267,8.7883 1.23037,10.76397 1.82407,21.5863 2.82989,32.37121 -9.80466,-6.83545 -19.06737,-15.47214 -31.05602,-18.16332 -10.132841,-1.75225 -20.459818,-1.11333 -30.683198,-1.61463 z"
       id="path101"
       inkscape:connector-curvature="0"
       sodipodi:nodetypes="ccccccccccccccc" />
  </g>
</svg>
